<?xml version="1.0" standalone="no"?>
<!DOCTYPE svg PUBLIC "-//W3C//DTD SVG 20010904//EN"
 "http://www.w3.org/TR/2001/REC-SVG-20010904/DTD/svg10.dtd">
<svg version="1.0" xmlns="http://www.w3.org/2000/svg"
 width="601.000000pt" height="601.000000pt" viewBox="0 0 601.000000 601.000000"
 preserveAspectRatio="xMidYMid meet">
<metadata>
Created by potrace 1.11, written by Peter Selinger 2001-2013
</metadata>
<g transform="translate(0.000000,601.000000) scale(0.100000,-0.100000)"
fill="#000000" stroke="none">
<path d="M2770 6003 c-416 -39 -732 -126 -1085 -298 -824 -401 -1426 -1169
-1619 -2066 -51 -236 -60 -335 -60 -634 0 -217 4 -307 17 -400 37 -246 94
-468 173 -674 431 -1117 1488 -1881 2672 -1928 l152 -6 0 139 0 140 109 11
c201 22 405 105 666 272 248 159 397 282 490 407 96 126 213 398 287 662 l41
149 91 6 c152 9 209 42 295 173 54 82 184 374 230 516 57 180 62 283 20 447
-25 99 -59 170 -104 220 l-38 42 11 107 c33 313 37 432 18 613 -10 96 -20 189
-23 207 -5 28 -3 32 18 32 49 0 55 12 40 82 -33 161 -170 404 -365 647 -14 17
114 -61 173 -106 39 -29 47 -32 59 -19 13 12 9 22 -31 73 -140 180 -562 509
-806 629 -132 64 -363 128 -551 151 l-65 8 65 6 c36 4 140 7 232 8 104 1 169
5 173 11 18 30 -54 56 -304 108 -120 26 -139 27 -429 27 l-302 0 0 123 0 122
-107 -2 c-60 0 -124 -3 -143 -5z m240 -952 c0 -628 -2 -699 -16 -705 -9 -3
-41 -6 -72 -7 -31 0 -79 -4 -107 -8 l-50 -7 60 -11 c33 -7 88 -15 123 -19 55
-6 62 -9 62 -28 0 -21 -2 -22 -87 -14 -181 16 -424 75 -608 148 -90 36 -126
37 -288 9 -106 -19 -146 -20 -312 -15 -104 3 -204 8 -221 12 -29 5 -31 3 -43
-35 -15 -53 -30 -218 -31 -346 -1 -175 -61 -520 -106 -608 -9 -16 -14 -30 -12
-32 2 -2 62 3 133 11 88 9 261 14 534 14 447 0 471 -2 791 -75 85 -19 169 -35
187 -35 64 0 63 4 63 -175 l0 -162 -40 -7 c-52 -8 -100 -52 -129 -118 -83
-187 -92 -201 -155 -262 -77 -73 -194 -146 -296 -183 -74 -27 -80 -28 -344
-31 -304 -4 -415 8 -541 57 -112 43 -162 76 -185 121 -17 33 -26 40 -50 40
-23 0 -35 9 -58 43 -73 106 -105 201 -137 409 -7 46 -26 53 -92 32 -71 -22
-134 -79 -163 -146 -64 -147 -21 -336 158 -693 118 -236 166 -297 276 -349 39
-18 78 -28 123 -31 37 -2 71 -9 78 -17 7 -7 20 -49 30 -93 40 -186 119 -395
210 -556 149 -265 387 -499 635 -624 148 -74 363 -140 535 -164 158 -22 145
-17 145 -63 l0 -41 -67 7 c-299 31 -623 146 -838 297 -117 83 -302 269 -387
389 -77 109 -192 334 -238 465 -18 50 -45 139 -60 200 l-28 109 -63 11 c-124
21 -233 94 -308 204 -47 68 -165 303 -221 437 -136 326 -119 549 50 683 29 23
55 41 60 41 4 0 -3 43 -16 94 -32 136 -46 292 -34 401 9 89 38 227 86 418 20
78 22 102 13 119 -17 32 -4 217 20 305 57 201 154 308 290 320 38 4 61 2 65
-6 16 -25 21 -7 18 64 -6 125 13 168 120 280 206 216 494 407 737 490 125 42
627 129 774 134 l27 1 0 -699z m1155 -675 c113 -30 277 -107 348 -163 l47 -38
4 -160 c6 -226 43 -398 106 -482 13 -19 22 -51 27 -97 l6 -69 -37 7 c-210 40
-550 56 -766 37 -74 -7 -256 -29 -405 -51 -148 -21 -304 -41 -345 -45 -41 -3
-87 -8 -102 -11 l-28 -6 0 471 0 470 134 0 c124 0 278 17 369 42 27 7 37 15
37 29 0 24 -9 25 -160 6 -148 -19 -333 -29 -360 -21 -27 9 -26 41 3 48 42 11
312 48 407 57 52 4 212 7 355 6 245 -3 266 -5 360 -30z m175 -1076 c160 -14
240 -40 295 -94 66 -67 79 -156 50 -348 -34 -227 -100 -329 -242 -377 -129
-43 -631 -54 -768 -16 -112 31 -179 79 -259 185 -86 113 -126 211 -126 307 0
81 14 124 60 182 79 100 213 138 565 160 190 12 296 12 425 1z m713 -199 c74
-66 122 -213 122 -376 0 -93 -5 -124 -29 -200 -54 -171 -184 -459 -247 -551
-53 -77 -97 -95 -240 -95 -60 0 -102 -5 -112 -12 -9 -7 -25 -50 -37 -97 -53
-213 -113 -387 -194 -563 -97 -211 -218 -334 -541 -547 -258 -170 -489 -266
-667 -277 l-88 -6 0 1287 0 1286 29 0 c49 0 83 -39 130 -152 91 -215 244 -356
452 -415 56 -16 106 -18 399 -18 375 0 430 7 550 67 50 26 73 45 98 83 19 28
39 51 47 53 18 4 75 92 128 199 44 87 69 158 82 236 5 33 9 37 35 37 29 0 30
2 30 45 0 25 4 45 10 45 5 0 24 -13 43 -29z"/>
<path d="M1650 3330 c-133 -13 -223 -44 -276 -94 -57 -56 -68 -99 -61 -251 13
-268 84 -425 221 -486 70 -31 162 -40 436 -46 245 -5 272 -4 353 16 138 33
194 69 281 186 90 119 125 198 133 301 14 177 -96 298 -309 339 -175 33 -597
52 -778 35z"/>
</g>
</svg>
